<svg width="14" height="13" viewBox="0 0 14 13" fill="none" xmlns="http://www.w3.org/2000/svg">
<path d="M6.39683 1.21802C6.42327 1.15353 6.46829 1.09837 6.52616 1.05955C6.58403 1.02073 6.65215 1 6.72183 1C6.79152 1 6.85964 1.02073 6.91751 1.05955C6.97538 1.09837 7.0204 1.15353 7.04684 1.21802L8.37496 4.41239C8.39982 4.47216 8.44069 4.52392 8.49307 4.56196C8.54545 4.6 8.6073 4.62286 8.67183 4.62801L12.1206 4.90427C12.4325 4.92927 12.5587 5.31864 12.3212 5.52177L9.69371 7.77302C9.64462 7.81501 9.60804 7.86971 9.58797 7.93111C9.56791 7.99252 9.56514 8.05826 9.57996 8.12114L10.3831 11.4868C10.3992 11.5543 10.395 11.6251 10.3709 11.6902C10.3469 11.7553 10.304 11.8119 10.2479 11.8526C10.1917 11.8934 10.1247 11.9167 10.0553 11.9194C9.98593 11.9221 9.9173 11.9043 9.85808 11.868L6.90496 10.0649C6.84979 10.0313 6.78644 10.0135 6.72183 10.0135C6.65723 10.0135 6.59387 10.0313 6.53871 10.0649L3.58559 11.8686C3.52637 11.9049 3.45774 11.9228 3.38837 11.92C3.319 11.9173 3.25199 11.8941 3.19581 11.8533C3.13964 11.8125 3.09681 11.7559 3.07274 11.6908C3.04867 11.6257 3.04444 11.5549 3.06059 11.4874L3.86371 8.12114C3.8786 8.05826 3.87587 7.9925 3.8558 7.93108C3.83573 7.86966 3.79911 7.81497 3.74996 7.77302L1.12246 5.52177C1.06984 5.47652 1.03178 5.41673 1.01305 5.34991C0.994328 5.28309 0.995777 5.21223 1.01722 5.14623C1.03866 5.08023 1.07914 5.02205 1.13356 4.979C1.18799 4.93594 1.25392 4.90994 1.32309 4.90427L4.77184 4.62801C4.83637 4.62286 4.89822 4.6 4.9506 4.56196C5.00298 4.52392 5.04385 4.47216 5.06871 4.41239L6.39683 1.21802Z" stroke="black" stroke-width="1.5" stroke-linecap="round" stroke-linejoin="round"/>
</svg>
